<?xml version="1.0"?>
<svg width="640.0000000000001" height="480" xmlns="http://www.w3.org/2000/svg" xmlns:svg="http://www.w3.org/2000/svg" stroke="null" style="vector-effect: non-scaling-stroke;">
 <!-- Created with SVG-edit - http://svg-edit.googlecode.com/ -->

 <g stroke="null">
  <title stroke="null">Layer 1</title>
  <path stroke="#7f0000" style="vector-effect: non-scaling-stroke;" transform="rotate(-16.970903396606445 190.43563842773446,222.83001708984372) " id="svg_5" d="m170.732912,139.370303c-6.154973,-0.532424 -17.23357,7.458376 -14.763306,-6.199602c4.282443,-8.381951 15.877241,-4.396738 14.559198,5.371094l0.150522,0.610995l0.053586,0.217513l0,0zm14.887425,-18.117849c-5.874581,11.364096 -19.109483,12.176764 -29.047047,16.4092c-4.60263,2.981538 -23.262481,4.91923 -16.157339,-4.183085c10.146564,-7.596015 22.626427,-9.429568 34.05032,-13.57159c3.678213,-0.976276 7.944827,-1.359551 11.154066,1.345475zm-30.384164,12.018457c-4.481338,-17.370645 -8.962658,-34.741261 -13.443988,-52.111906c5.482187,-8.422123 17.569161,-4.769806 15.894675,6.45669c3.484002,13.504725 6.967995,27.009498 10.451988,40.514262m-4.828578,9.140067c19.574215,77.46764 42.336723,154.024694 70.781413,227.95353m-65.613064,-229.968921c19.77409,72.90274 40.010788,145.881964 67.30599,215.731294c0.375715,5.411864 12.840573,21.637767 1.539932,17.45096c-3.514125,-1.90183 -9.515862,-0.608674 -10.166834,-6.188327c-26.665029,-72.781146 -49.784265,-147.21492 -69.319848,-222.825702" stroke-linecap="null" stroke-linejoin="null" stroke-dasharray="null" stroke-width="5" fill="#3f007f"/>
  <path stroke="#000000" transform="rotate(-122.76201629638672 463.631591796875,226.50103759765625) " id="svg_9" d="m437.734846,154.489842c-8.089942,-0.459389 -22.651369,6.435278 -19.404516,-5.349176c5.628735,-7.232162 20.868645,-3.793619 19.136242,4.634318l0.197842,0.527182l0.070432,0.187676l0,0zm19.567656,-15.632545c-7.721401,9.805234 -25.117021,10.506425 -38.178705,14.158279c-6.04958,2.572548 -30.575617,4.244438 -21.236798,-3.609273c13.336388,-6.554036 29.739604,-8.136074 44.754881,-11.709916c4.83455,-0.842356 10.442479,-1.173056 14.660622,1.16091zm-39.936177,10.369833c-5.890157,-14.987839 -11.780292,-29.975652 -17.670438,-44.963491c7.205648,-7.266824 23.092461,-4.115511 20.89156,5.570998c4.579284,11.652223 9.158557,23.304488 13.737829,34.956745m-6.34656,7.886285c25.727854,66.841069 55.646319,132.896461 93.033302,196.684159m-86.240154,-198.42309c25.990565,62.902355 52.589169,125.870704 88.465292,186.1385c0.49383,4.669495 16.877324,18.669621 2.024047,15.057136c-4.618878,-1.640947 -12.507408,-0.525179 -13.36303,-5.339448c-35.04784,-62.797441 -65.43518,-127.020812 -91.112257,-192.259737" stroke-linecap="null" stroke-linejoin="null" stroke-dasharray="null" stroke-width="5" fill="#3f007f"/>
  <line id="svg_14" y2="224" x2="228" y1="121" x1="173" stroke-linecap="null" stroke-linejoin="null" stroke-dasharray="null" stroke-width="5" stroke="#000000" fill="none"/>
  <line id="svg_15" y2="153" x2="241" y1="222" x1="232" stroke-linecap="null" stroke-linejoin="null" stroke-dasharray="null" stroke-width="5" stroke="#000000" fill="none"/>
  <line id="svg_16" y2="154" x2="242" y1="219" x1="268" stroke-linecap="null" stroke-linejoin="null" stroke-dasharray="null" stroke-width="5" stroke="#000000" fill="none"/>
  <line id="svg_17" y2="216" x2="270" y1="122" x1="311" stroke-linecap="null" stroke-linejoin="null" stroke-dasharray="null" stroke-width="5" stroke="#000000" fill="none"/>
  <line id="svg_20" y2="122" x2="312" y1="189" x1="354" stroke-linecap="null" stroke-linejoin="null" stroke-dasharray="null" stroke-width="5" stroke="#000000" fill="none"/>
  <line id="svg_21" y2="186" x2="354" y1="125" x1="409" stroke-linecap="null" stroke-linejoin="null" stroke-dasharray="null" stroke-width="5" stroke="#000000" fill="none"/>
  <line id="svg_22" y2="123" x2="408" y1="223" x1="403" stroke-linecap="null" stroke-linejoin="null" stroke-dasharray="null" stroke-width="5" stroke="#000000" fill="none"/>
  <ellipse opacity="0.76" ry="124" rx="294" id="svg_23" cy="232" cx="304" stroke-linecap="null" stroke-linejoin="null" stroke-dasharray="null" stroke-width="5" stroke="#7f3f00" fill="none"/>
  <polygon opacity="0.81" stroke-width="5" stroke="#ff0000" points="316.7073059082031,220.76479816436768 327.9964599609375,253.24225997924805 362.3728942871094,253.94279861450195 334.9735412597656,274.7155113220215 344.9302062988281,307.6259307861328 316.7073059082031,287.9867134094238 288.4844055175781,307.6259307861328 298.44105529785156,274.7155113220215 271.0417022705078,253.94279861450195 305.4181365966797,253.24225997924805 316.7073059082031,220.76479816436768 327.9964599609375,253.24225997924805 " strokeWidth="5" strokecolor="#7f3f00" fill="#000000" orient="point" r2="19.206261" r="48.015653" point="5" shape="star" id="svg_29" cy="42.764201" cx="237.845515"/>
 </g>
</svg>